<svg  viewBox="0 0 161 85" fill="none" xmlns="http://www.w3.org/2000/svg">
<path fill-rule="evenodd" clip-rule="evenodd" d="M30.8039 22.8089L32.7361 10.1118C33.2564 6.69284 37.7257 5.72771 39.6104 8.6273C40.3045 9.69507 41.4916 10.3393 42.7651 10.3393H51.5754C53.2349 10.3393 54.79 9.5296 55.7417 8.17008C58.0775 4.83324 63.1924 5.45921 64.6546 9.26086L68.4957 19.2476C68.6471 19.6414 68.7672 20.0466 68.8548 20.4594L72.0632 35.5849C72.1696 36.0867 72.3241 36.577 72.5244 37.0492L76.0502 45.36L76.2232 45.3393L157.723 34.8393L160.223 58.8393L70.2444 70.4133L71.6369 75.2871C71.9839 76.5018 73.0942 77.3393 74.3575 77.3393C75.4893 77.3393 76.5123 78.0138 76.9582 79.0542L77.1323 79.4606C78.1221 81.7701 76.428 84.3393 73.9153 84.3393H60.7232H39.9564C39.1391 84.3393 38.3267 84.2141 37.5473 83.9679L31.3792 82.0201C29.9695 81.5749 28.464 81.5291 27.0298 81.8876L18.1787 84.1004C17.5441 84.2591 16.8925 84.3393 16.2384 84.3393H7.68779C5.3057 84.3393 3.17615 82.8544 2.35265 80.6192C1.20517 77.5046 2.95846 74.0734 6.15476 73.1785L7.44295 72.8178C10.8911 71.8523 14.5434 71.8933 17.969 72.9358C21.0809 73.8829 24.2232 71.5546 24.2232 68.3018V65.3464C24.2232 51.4208 26.3171 37.5744 30.4347 24.2715L30.5646 23.8518C30.6702 23.5106 30.7502 23.162 30.8039 22.8089Z" fill="#59AFFF"/>
<path d="M58 17.9239C58.8333 16.5906 61.3 14.6239 64.5 17.4239C64 19.5 60.4 21.1239 58 17.9239Z" fill="white" stroke="#1A1944" stroke-linecap="round"/>
<path d="M40 18.9239C40.8333 17.5906 43.3 15.6239 46.5 18.4239C46 20.5 42.4 22.1239 40 18.9239Z" fill="white" stroke="#1A1944" stroke-linecap="round"/>
<path d="M61.4906 17.9896L61.4906 17" stroke="#1A1944" stroke-linecap="round"/>
<path d="M43.4906 18.9896L43.4906 18" stroke="#1A1944" stroke-linecap="round"/>
<path d="M59.5 39L69.1926 49.1542C69.7223 49.7091 70.1036 50.3886 70.3013 51.1298L70.5748 52.1554C71.2641 54.7404 74.3241 55.8399 76.5011 54.2849V54.2849C77.9613 53.2419 78.5015 51.3249 77.8006 49.6729L72.3012 36.71C72.1009 36.2377 71.9464 35.7474 71.84 35.2456L68.6315 20.1201C68.544 19.7074 68.4239 19.3022 68.2724 18.9083L64.4314 8.92157C62.9692 5.11993 57.8542 4.49395 55.5184 7.83079V7.83079C54.5668 9.19031 53.0117 10 51.3521 10H42.5419C41.2683 10 40.0813 9.35579 39.3872 8.28802V8.28802C37.5025 5.38843 33.0332 6.35356 32.5129 9.7725L30.5807 22.4696C30.527 22.8227 30.447 23.1713 30.3414 23.5125L30.2115 23.9322C26.0939 37.2351 24 51.0815 24 65.0071V67.9625C24 71.2153 20.8576 73.5436 17.7458 72.5965V72.5965C14.3202 71.554 10.6678 71.513 7.21973 72.4785L5.93154 72.8392C2.73524 73.7341 0.981954 77.1653 2.12943 80.2799V80.2799C2.95293 82.5151 5.08248 84 7.46457 84H16.0152C16.6692 84 17.3209 83.9198 17.9554 83.7611L26.8066 81.5483C28.2408 81.1898 29.7463 81.2357 31.1559 81.6808L37.3241 83.6287C38.1034 83.8748 38.9159 84 39.7331 84H60.5M60.5 84L60.727 83.3191C61.4237 81.2288 60.2545 78.9763 58.1441 78.3432V78.3432C57.3984 78.1195 56.7366 77.6781 56.2436 77.0755L52.5 72.5M60.5 84H73.6921C76.2048 84 77.8989 81.4308 76.9091 79.1213L76.7349 78.7149C76.2891 77.6745 75.2661 77 74.1343 77V77C72.871 77 71.7607 76.1625 71.4137 74.9479L70 70M51 40.5L47.5158 48.3394C47.1757 49.1046 47 49.9327 47 50.77V52.7207C47 55.2647 44.78 57.2388 42.2534 56.9416V56.9416C40.1131 56.6898 38.5 54.8758 38.5 52.7207V40.5" stroke="#1A1944" stroke-linecap="round"/>
<path d="M52 22H53.75M55.5 22H53.75M53.75 22V25M53.75 25V25C52.6877 25.607 51.3663 25.5247 50.3875 24.7907L50 24.5M53.75 25V25C54.7832 25.5904 56.0838 25.4162 56.9252 24.5748L57 24.5" stroke="#1A1944" stroke-linecap="round"/>
<path d="M47.5 48.5L66 46M76 45L157.5 34.5L160 58.5L39.5 74L35.5 50L38.5 49.5" stroke="#1A1944" stroke-linecap="round"/>
<path d="M44.7351 66.2267L43.7116 57.7376L45.9941 57.4624L46.1727 58.9436L46.2611 58.9329C46.3523 58.3874 46.5641 57.9581 46.8964 57.6452C47.2283 57.3286 47.6319 57.1416 48.1072 57.0843C48.2251 57.0701 48.3531 57.0621 48.4912 57.0604C48.6293 57.0587 48.7515 57.0645 48.8578 57.0779L49.1097 59.167C48.9952 59.1472 48.8387 59.1361 48.6403 59.1339C48.4419 59.1316 48.2617 59.1403 48.0995 59.1598C47.7532 59.2016 47.4528 59.3144 47.1984 59.4984C46.9472 59.6782 46.7584 59.9103 46.6319 60.1947C46.5091 60.4786 46.4686 60.7937 46.5104 61.1401L47.0895 65.9428L44.7351 66.2267ZM54.5968 65.2059C53.7236 65.3112 52.9506 65.2249 52.2779 64.9472C51.6085 64.6653 51.0649 64.2187 50.6473 63.6074C50.2293 62.9925 49.9663 62.2373 49.8583 61.342C49.753 60.4688 49.8301 59.682 50.0896 58.9816C50.349 58.2812 50.7642 57.7097 51.3351 57.267C51.9097 56.824 52.6133 56.5522 53.446 56.4518C54.006 56.3843 54.5383 56.4117 55.0427 56.5341C55.5504 56.6523 56.0063 56.8683 56.4105 57.1822C56.8183 57.4956 57.1562 57.9109 57.4242 58.4281C57.6917 58.9416 57.869 59.5594 57.9561 60.2816L58.034 60.9282L50.8658 61.7924L50.6899 60.3334L55.6419 59.7363C55.601 59.3974 55.4911 59.106 55.3122 58.8621C55.1333 58.6183 54.9041 58.4385 54.6248 58.3226C54.3486 58.2027 54.0392 58.1633 53.6966 58.2047C53.3392 58.2477 53.0323 58.3688 52.776 58.568C52.5229 58.763 52.3356 59.008 52.2142 59.3029C52.0923 59.5943 52.0497 59.9078 52.0865 60.2435L52.2537 61.6307C52.3044 62.0508 52.4255 62.4043 52.6171 62.6915C52.8124 62.9782 53.0638 63.1871 53.3711 63.3183C53.6785 63.4494 54.0293 63.4913 54.4236 63.4437C54.6852 63.4122 54.9202 63.3465 55.1287 63.2466C55.3372 63.1467 55.51 63.0137 55.6469 62.8477C55.7839 62.6816 55.8801 62.4869 55.9353 62.2634L58.1302 62.1445C58.0828 62.6811 57.9112 63.1653 57.6157 63.5971C57.3233 64.0249 56.9213 64.3799 56.4096 64.6621C55.9011 64.9402 55.2968 65.1215 54.5968 65.2059ZM60.0096 64.3851L58.9861 55.896L61.2299 55.6255L61.4105 57.1232L61.51 57.1112C61.6269 56.5925 61.8743 56.1646 62.2523 55.8274C62.6303 55.4903 63.1067 55.287 63.6815 55.2177C64.2637 55.1476 64.7768 55.2333 65.2208 55.4751C65.6645 55.7132 65.9842 56.0709 66.1801 56.5482L66.2685 56.5375C66.383 56.0303 66.6493 55.6038 67.0674 55.2581C67.4888 54.9082 68.0108 54.6958 68.6335 54.6207C69.4256 54.5252 70.099 54.7001 70.6536 55.1453C71.2114 55.5864 71.5458 56.2675 71.6569 57.1887L72.3452 62.8978L69.9964 63.181L69.364 57.9361C69.3072 57.4645 69.1392 57.1259 68.8603 56.9203C68.5813 56.7147 68.2539 56.6345 67.8781 56.6799C67.4507 56.7314 67.1337 56.9079 66.927 57.2094C66.72 57.5073 66.6431 57.8773 66.6964 58.3194L67.3214 63.5035L65.0389 63.7787L64.4005 58.4841C64.3503 58.0677 64.1906 57.7506 63.9214 57.5326C63.6558 57.3141 63.3296 57.2283 62.9427 57.2749C62.6811 57.3064 62.4533 57.4012 62.2593 57.5592C62.0685 57.713 61.9265 57.9151 61.8333 58.1656C61.7397 58.4124 61.7118 58.6924 61.7496 59.0056L62.364 64.1012L60.0096 64.3851ZM78.0605 62.3769C77.202 62.4804 76.4376 62.3875 75.7673 62.0983C75.1002 61.8049 74.5576 61.3508 74.1396 60.7358C73.7211 60.1171 73.4594 59.373 73.3546 58.5035C73.2488 57.6266 73.3259 56.8398 73.5858 56.1431C73.8453 55.4427 74.2644 54.8726 74.8431 54.4327C75.425 53.9887 76.1452 53.715 77.0037 53.6115C77.8622 53.508 78.625 53.6029 79.2921 53.8963C79.9624 54.1856 80.5068 54.6395 80.9253 55.2582C81.3434 55.8731 81.6053 56.6191 81.711 57.496C81.8158 58.3655 81.7385 59.1505 81.4791 59.8509C81.2192 60.5476 80.7982 61.1179 80.2163 61.5619C79.6376 62.0017 78.919 62.2734 78.0605 62.3769ZM77.8517 60.5517C78.2422 60.5047 78.555 60.3548 78.7899 60.1022C79.0244 59.8459 79.1847 59.5163 79.2707 59.1135C79.3604 58.7102 79.3754 58.2616 79.3159 57.7679C79.2564 57.2742 79.1351 56.8421 78.9522 56.4717C78.7729 56.1008 78.5389 55.8188 78.2502 55.6255C77.9615 55.4323 77.6219 55.3593 77.2313 55.4064C76.8371 55.4539 76.519 55.6063 76.2771 55.8634C76.039 56.1202 75.875 56.4502 75.7853 56.8535C75.6994 57.2564 75.6861 57.7047 75.7456 58.1984C75.8052 58.6921 75.9246 59.1244 76.1039 59.4953C76.2868 59.8657 76.5245 60.1473 76.8169 60.3401C77.1125 60.5287 77.4574 60.5993 77.8517 60.5517ZM87.2415 52.4893L87.4547 54.2579L82.3425 54.8742L82.1292 53.1057L87.2415 52.4893ZM83.0446 50.9319L85.399 50.648L86.3532 58.5623C86.3795 58.7797 86.4331 58.9452 86.514 59.0588C86.5946 59.1687 86.6967 59.2405 86.8204 59.2742C86.9477 59.3074 87.0906 59.3145 87.249 59.2954C87.3596 59.282 87.469 59.2595 87.5773 59.2278C87.6852 59.1923 87.7679 59.1655 87.8256 59.1474L88.4071 60.8547C88.2936 60.9058 88.1329 60.9681 87.925 61.0418C87.7175 61.1191 87.4615 61.1818 87.1571 61.2297C86.5923 61.3202 86.0858 61.3046 85.6375 61.183C85.1929 61.0609 84.8307 60.8317 84.5509 60.4954C84.2712 60.159 84.0996 59.7125 84.0362 59.1557L83.0446 50.9319ZM93.5962 60.5038C92.7229 60.6091 91.95 60.5228 91.2773 60.2451C90.6078 59.9632 90.0643 59.5166 89.6467 58.9054C89.2287 58.2904 88.9657 57.5352 88.8577 56.6399C88.7524 55.7667 88.8295 54.9799 89.089 54.2795C89.3484 53.5791 89.7636 53.0076 90.3345 52.5649C90.9091 52.1219 91.6127 51.8501 92.4454 51.7497C93.0054 51.6822 93.5377 51.7096 94.0421 51.832C94.5498 51.9502 95.0057 52.1662 95.4099 52.4801C95.8177 52.7935 96.1556 53.2088 96.4236 53.726C96.6911 54.2395 96.8684 54.8573 96.9554 55.5795L97.0334 56.2261L89.8652 57.0904L89.6893 55.6313L94.6413 55.0343C94.6004 54.6953 94.4905 54.4039 94.3116 54.16C94.1327 53.9162 93.9035 53.7364 93.6241 53.6205C93.348 53.5006 93.0386 53.4613 92.696 53.5026C92.3386 53.5457 92.0317 53.6668 91.7754 53.8659C91.5223 54.0609 91.335 54.3059 91.2136 54.6009C91.0917 54.8922 91.0491 55.2057 91.0859 55.5414L91.2531 56.9286C91.3037 57.3487 91.4249 57.7023 91.6165 57.9894C91.8118 58.2761 92.0631 58.4851 92.3705 58.6162C92.6779 58.7474 93.0287 58.7892 93.423 58.7416C93.6846 58.7101 93.9196 58.6444 94.1281 58.5445C94.3366 58.4446 94.5093 58.3116 94.6463 58.1456C94.7833 57.9795 94.8794 57.7848 94.9347 57.5613L97.1296 57.4425C97.0821 57.979 96.9106 58.4632 96.6151 58.895C96.3227 59.3228 95.9207 59.6778 95.409 59.96C94.9005 60.2381 94.2962 60.4194 93.5962 60.5038ZM102.22 47.8125L104.586 47.5273L105.537 55.4195C105.625 56.149 105.538 56.8025 105.275 57.38C105.015 57.957 104.614 58.4259 104.071 58.7867C103.527 59.1476 102.872 59.3742 102.106 59.4666C101.424 59.5488 100.791 59.5036 100.206 59.3312C99.6237 59.1547 99.1408 58.8391 98.7571 58.3845C98.3729 57.9262 98.1373 57.321 98.0504 56.5689L100.432 56.2817C100.476 56.5792 100.567 56.828 100.707 57.0279C100.851 57.2237 101.03 57.3665 101.247 57.4563C101.467 57.5419 101.716 57.5679 101.996 57.5341C102.291 57.4986 102.532 57.406 102.72 57.2563C102.911 57.1024 103.045 56.8956 103.122 56.6359C103.199 56.3762 103.215 56.0657 103.172 55.7047L102.22 47.8125ZM112.893 54.342L112.305 49.4674L114.66 49.1835L115.683 57.6726L113.423 57.9451L113.237 56.4032L113.148 56.4138C113.017 56.9343 112.746 57.3725 112.337 57.7284C111.931 58.0839 111.41 58.3 110.772 58.3769C110.205 58.4453 109.69 58.3765 109.228 58.1706C108.766 57.9646 108.384 57.6387 108.084 57.1927C107.787 56.7463 107.597 56.1917 107.513 55.5289L106.861 50.1238L109.216 49.8399L109.817 54.825C109.881 55.3257 110.063 55.7055 110.364 55.9646C110.664 56.2237 111.037 56.3264 111.483 56.2726C111.767 56.2384 112.024 56.1419 112.255 55.9832C112.486 55.8208 112.662 55.6016 112.782 55.3254C112.905 55.0489 112.942 54.721 112.893 54.342ZM119.329 52.2539L119.921 57.1617L117.566 57.4455L116.543 48.9565L118.787 48.6859L118.967 50.1837L119.067 50.1717C119.195 49.6553 119.463 49.2268 119.871 48.8861C120.278 48.5417 120.796 48.3315 121.426 48.2556C122.016 48.1845 122.545 48.2515 123.015 48.4565C123.484 48.6616 123.87 48.9889 124.171 49.4386C124.471 49.8846 124.661 50.4373 124.741 51.0968L125.392 56.502L123.038 56.7859L122.437 51.8007C122.378 51.2808 122.196 50.8915 121.892 50.6328C121.588 50.3705 121.2 50.2678 120.728 50.3246C120.411 50.3628 120.139 50.4648 119.913 50.6304C119.69 50.7956 119.526 51.0172 119.421 51.2953C119.319 51.5692 119.289 51.8887 119.329 52.2539ZM127.248 56.2783L126.224 47.7892L128.579 47.5053L129.602 55.9944L127.248 56.2783ZM127.275 46.5523C126.925 46.5945 126.611 46.5147 126.332 46.3127C126.057 46.1067 125.9 45.8397 125.86 45.5118C125.821 45.1876 125.911 44.8945 126.13 44.6326C126.352 44.3666 126.638 44.2125 126.988 44.1703C127.338 44.1281 127.651 44.21 127.926 44.4161C128.204 44.618 128.363 44.881 128.402 45.2053C128.442 45.5332 128.351 45.8302 128.128 46.0962C127.91 46.3581 127.625 46.5101 127.275 46.5523ZM135.344 55.4704C134.485 55.5739 133.721 55.481 133.05 55.1918C132.383 54.8984 131.841 54.4442 131.423 53.8292C131.004 53.2106 130.743 52.4665 130.638 51.597C130.532 50.72 130.609 49.9332 130.869 49.2365C131.128 48.5361 131.548 47.966 132.126 47.5262C132.708 47.0822 133.428 46.8085 134.287 46.705C135.145 46.6015 135.908 46.6964 136.575 46.9898C137.246 47.279 137.79 47.733 138.209 48.3516C138.627 48.9666 138.888 49.7125 138.994 50.5894C139.099 51.459 139.022 52.2439 138.762 52.9443C138.502 53.641 138.081 54.2114 137.499 54.6553C136.921 55.0952 136.202 55.3669 135.344 55.4704ZM135.135 53.6452C135.525 53.5981 135.838 53.4483 136.073 53.1957C136.308 52.9394 136.468 52.6098 136.554 52.2069C136.644 51.8036 136.659 51.3551 136.599 50.8614C136.54 50.3677 136.418 49.9356 136.235 49.5652C136.056 49.1943 135.822 48.9122 135.533 48.719C135.245 48.5258 134.905 48.4527 134.515 48.4998C134.12 48.5474 133.802 48.6997 133.56 48.9569C133.322 49.2136 133.158 49.5437 133.069 49.947C132.983 50.3498 132.969 50.7981 133.029 51.2918C133.088 51.7856 133.208 52.2179 133.387 52.5887C133.57 52.9592 133.808 53.2408 134.1 53.4336C134.396 53.6222 134.741 53.6927 135.135 53.6452ZM141.033 54.6162L140.009 46.1272L142.292 45.852L142.47 47.3331L142.559 47.3225C142.65 46.7769 142.862 46.3477 143.194 46.0347C143.526 45.7181 143.93 45.5311 144.405 45.4738C144.523 45.4596 144.651 45.4517 144.789 45.45C144.927 45.4483 145.049 45.4541 145.156 45.4674L145.407 47.5565C145.293 47.5367 145.136 47.5257 144.938 47.5234C144.74 47.5212 144.559 47.5298 144.397 47.5494C144.051 47.5911 143.751 47.704 143.496 47.8879C143.245 48.0677 143.056 48.2998 142.93 48.5842C142.807 48.8681 142.766 49.1833 142.808 49.5296L143.387 54.3324L141.033 54.6162ZM153.733 46.9285L151.593 47.321C151.534 47.1412 151.435 46.985 151.295 46.8522C151.156 46.7158 150.981 46.6154 150.771 46.551C150.565 46.4824 150.325 46.4646 150.053 46.4974C149.688 46.5414 149.39 46.6559 149.158 46.8408C148.925 47.0221 148.825 47.2399 148.855 47.4941C148.88 47.6967 148.981 47.8583 149.16 47.9788C149.339 48.0992 149.631 48.1781 150.036 48.2153L151.609 48.3395C152.455 48.4095 153.103 48.608 153.554 48.9349C154.005 49.2619 154.267 49.7312 154.34 50.3428C154.408 50.8991 154.302 51.4071 154.025 51.8667C153.752 52.3258 153.345 52.7075 152.806 53.0117C152.271 53.3118 151.634 53.5062 150.897 53.5951C149.774 53.7306 148.85 53.6046 148.127 53.217C147.407 52.8254 146.941 52.2312 146.729 51.4343L149.03 51.0336C149.141 51.3678 149.342 51.6089 149.633 51.757C149.923 51.9015 150.278 51.9484 150.698 51.8977C151.111 51.848 151.433 51.7288 151.664 51.5401C151.899 51.3474 152.003 51.1236 151.976 50.869C151.947 50.6557 151.835 50.4916 151.642 50.3766C151.448 50.2579 151.163 50.1839 150.785 50.1546L149.28 50.039C148.431 49.9731 147.779 49.7601 147.324 49.4C146.874 49.0395 146.61 48.5423 146.533 47.9086C146.468 47.3633 146.558 46.8758 146.806 46.446C147.057 46.0158 147.438 45.6614 147.95 45.3828C148.466 45.1038 149.087 44.9205 149.813 44.833C150.885 44.7038 151.756 44.8286 152.426 45.2076C153.1 45.5862 153.535 46.1598 153.733 46.9285Z" fill="#1A1944"/>
</svg>
